# xmcd
#
# Track frame offsets:
#	150
#	15110
#	36626
#	51469
#	75704
#	89657
#	106021
#	127947
#	151558
#	168731
#
# Disc length: 2764 seconds
# Revision: 0
# Processed by: cddbd v1.5.2PL0 Copyright (c) Steve Scherf et al.
# Submitted via: dBpowerAMP V12.0
#
DISCID=720aca0a
DTITLE=Jon Spear Band - Old Soul
DYEAR=2014
DGENRE=Blues
TTITLE0=I Can't Help Myself
TTITLE1=Devil's Highway
TTITLE2=Second Mouse Gets the Cheese
TTITLE3=Old Soul
TTITLE4=I Love My Skin
TTITLE5=Forever Home
TTITLE6=Mean Mean Woman
TTITLE7=Paid in Full
TTITLE8=Live Music is Better
TTITLE9=Tin Pan Alley
EXTD=
EXTT0=
EXTT1=
EXTT2=
EXTT3=
EXTT4=
EXTT5=
EXTT6=
EXTT7=
EXTT8=
EXTT9=
PLAYORDER=
